<?xml version="1.0" encoding="UTF-8"?>
<svg id="Layer_2" data-name="Layer 2" xmlns="http://www.w3.org/2000/svg" viewBox="0 0 830.85 130.02">
  <defs>
    <style>
      .cls-1 {
        fill: #fff;
      }

      .cls-1, .cls-2 {
        fill-rule: evenodd;
      }

      .cls-2 {
        fill: #22bec9;
      }
    </style>
  </defs>
  <g id="Layer_1-2" data-name="Layer 1">
    <g>
      <path id="Path_1" data-name="Path 1" class="cls-1" d="M177.89,10.05l1.72-4.58c.21.32.37.68.45,1.06l44.1,121.32h23.41L201.16,0h-30.97l-.98,2.72-43.44,115.42H0v9.74h133.7L177.89,10.12v-.07Z"/>
      <g id="Group_1" data-name="Group 1">
        <path id="Path_2" data-name="Path 2" class="cls-2" d="M162.33,1.74c-31.22,30.04-45.03,73.89-36.66,116.4,2.51-41.22,15.1-81.19,36.66-116.4Z"/>
        <path id="Path_3" data-name="Path 3" class="cls-2" d="M127.05,0c-20.55,36.6-21.07,81.15-1.36,118.22-9.18-38.93-8.72-79.51,1.36-118.22Z"/>
        <path id="Path_4" data-name="Path 4" class="cls-2" d="M94.28,5.59c-9.36,40.42,2.48,82.83,31.42,112.55-19.5-34.39-30.28-73.03-31.42-112.55Z"/>
        <path id="Path_5" data-name="Path 5" class="cls-2" d="M60.2,19.79c3.69,41.8,28.36,78.87,65.49,98.43-29.55-26.96-52.04-60.76-65.49-98.43Z"/>
        <path id="Path_6" data-name="Path 6" class="cls-2" d="M32.71,39.13c15.5,40.48,50.55,70.28,92.99,79.09-36.99-18.37-68.91-45.53-92.99-79.09Z"/>
        <path id="Path_7" data-name="Path 7" class="cls-2" d="M9.97,63c26.69,36.85,70.26,57.65,115.7,55.22-42.5-8.68-82.22-27.64-115.7-55.22Z"/>
      </g>
      <path id="Path_23" data-name="Path 23" class="cls-1" d="M525.07,51.74v-17.3h-29.84c3.46-.15,6.51,2.26,7.18,5.66.08,5.59.08,11.94.08,19.71v68.06h22.59v-42.22c0-25,11.56-33.92,30.44-33.79v-17.3c-15.79.23-26.13,5.89-30.44,17.22v-.05Z"/>
      <path id="Path_24" data-name="Path 24" class="cls-1" d="M336.07,98.21c-3.47,15.79-14.43,31.8-40.87,31.8-27.95,0-43.21-19.57-43.21-48.27,0-27.19,16.16-49.47,44.42-49.47,29.91,0,38.9,21.46,39.66,32.48h-22.13c-1.14-8.83-9.02-15.21-17.9-14.5-13.45,0-21,11.63-21,30.75,0,20.32,7.7,31.2,20.7,31.2,8.6.25,16.18-5.6,18.13-13.98h22.21Z"/>
      <path id="Path_25" data-name="Path 25" class="cls-1" d="M428.53,100.7V34.45h-22.58v49.33c0,20.09-5.52,27.49-19.11,27.49-12.6,0-16.04-9.52-16.04-20.47v-56.42h-29.74c3.75-.19,6.98,2.61,7.32,6.35v54.69c0,24.25,13.14,34.59,31.04,34.59,12.84,0,21.37-4.38,26.59-14.05.03,3.96.25,7.92.68,11.86h22.06c-.08-7.4-.15-18.13-.15-27.12h-.08Z"/>
      <path id="Path_26" data-name="Path 26" class="cls-1" d="M490.21,51.82v-17.3h-56.7v17.3h15.03v52.2c0,16.09,6.19,25.08,23.11,25.08,5.47.26,10.95-.32,16.24-1.72v-15.96c-2.2.36-4.42.51-6.65.45-7.93,0-10.12-3.4-10.12-11.18v-48.95h19.11l-.02.08ZM471.02,8.09h0v-3.4h-22.51v25.91h.08c12.38-.03,22.41-10.06,22.43-22.43v-.07Z"/>
      <path id="Path_27" data-name="Path 27" class="cls-1" d="M619.1,84.3h-12.08c-16.54,0-23.79,4.83-23.79,15.26-.27,7.45,5.54,13.71,12.99,13.98.69.02,1.37,0,2.05-.08,18.43,0,20.85-12.6,20.85-26.51v-2.65ZM641.09,104.92h0c-.03,7.66.4,15.31,1.29,22.91h-21.6c-.89-3.33-1.34-6.75-1.36-10.2-3.4,5.59-10.13,12.39-27.11,12.39-22.34,0-31.81-14.66-31.81-29.08,0-21.08,16.84-30.82,44.34-30.82h14.2v-6.5c0-7.18-2.42-14.89-16.24-14.89-12.46,0-14.95,5.66-16.39,12.6h-21.52c1.36-15.33,10.8-29.21,38.67-29.08,24.24.15,37.55,9.74,37.55,31.65v41.02Z"/>
      <path id="Path_28" data-name="Path 28" class="cls-1" d="M731.44,98.21c-3.48,15.79-14.43,31.8-40.87,31.8-27.95,0-43.21-19.57-43.21-48.27,0-27.19,16.16-49.47,44.42-49.47,29.91,0,38.9,21.46,39.66,32.48h-22.14c-1.15-8.83-9.02-15.21-17.9-14.5-13.45,0-21,11.63-21,30.75,0,20.32,7.7,31.2,20.7,31.2,8.6.25,16.18-5.6,18.12-13.98h22.22Z"/>
      <path id="Path_29" data-name="Path 29" class="cls-1" d="M794.14,70.09l33.38-35.65h-26.13l-35.13,35.65V4.6h-29.92c3.71-.17,6.92,2.58,7.33,6.27v116.93h22.59v-31.04l12.6-12.24,26.22,43.28h25.77l-36.79-57.71h.07Z"/>
    </g>
  </g>
</svg>